<?xml version="1.0" encoding="UTF-8" standalone="no"?>
<!-- Created with Inkscape (http://www.inkscape.org/) -->

<svg
   version="1.1"
   id="svg2"
   width="749.33331"
   height="749.33331"
   viewBox="0 0 749.33331 749.33331"
   sodipodi:docname="logo_ticket_code.svg"
   inkscape:version="1.2.2 (b0a8486541, 2022-12-01)"
   inkscape:export-filename="logo_ticket_code.svg"
   inkscape:export-xdpi="12.811388"
   inkscape:export-ydpi="12.811388"
   xmlns:inkscape="http://www.inkscape.org/namespaces/inkscape"
   xmlns:sodipodi="http://sodipodi.sourceforge.net/DTD/sodipodi-0.dtd"
   xmlns:xlink="http://www.w3.org/1999/xlink"
   xmlns="http://www.w3.org/2000/svg"
   xmlns:svg="http://www.w3.org/2000/svg">
  <defs
     id="defs6">
    <linearGradient
       inkscape:collect="always"
       id="linearGradient3484">
      <stop
         style="stop-color:#13a2be;stop-opacity:1;"
         offset="0"
         id="stop3480" />
      <stop
         style="stop-color:#0a4ee7;stop-opacity:1;"
         offset="1"
         id="stop3482" />
    </linearGradient>
    <linearGradient
       inkscape:collect="always"
       id="linearGradient2015">
      <stop
         style="stop-color:#13a2be;stop-opacity:1;"
         offset="0"
         id="stop2011" />
      <stop
         style="stop-color:#11b383;stop-opacity:1;"
         offset="1"
         id="stop2013" />
    </linearGradient>
    <linearGradient
       inkscape:collect="always"
       xlink:href="#linearGradient2015"
       id="linearGradient2017"
       x1="555.05249"
       y1="378.25467"
       x2="729.30626"
       y2="381.78906"
       gradientUnits="userSpaceOnUse" />
    <linearGradient
       inkscape:collect="always"
       xlink:href="#linearGradient3484"
       id="linearGradient3486"
       x1="568.05066"
       y1="311.03946"
       x2="44.760643"
       y2="408.15973"
       gradientUnits="userSpaceOnUse" />
  </defs>
  <sodipodi:namedview
     id="namedview4"
     pagecolor="#ffffff"
     bordercolor="#666666"
     borderopacity="1.0"
     inkscape:showpageshadow="2"
     inkscape:pageopacity="0.0"
     inkscape:pagecheckerboard="0"
     inkscape:deskcolor="#d1d1d1"
     showgrid="false"
     inkscape:zoom="1.144159"
     inkscape:cx="335.6177"
     inkscape:cy="367.51886"
     inkscape:window-width="1854"
     inkscape:window-height="1011"
     inkscape:window-x="66"
     inkscape:window-y="32"
     inkscape:window-maximized="1"
     inkscape:current-layer="g170" />
  <g
     inkscape:groupmode="layer"
     inkscape:label="Image"
     id="g8">
    <g
       id="g170">
      <path
         id="path1418"
         style="fill:url(#linearGradient2017);fill-opacity:1;stroke-width:0;stroke-linecap:round"
         d="m 638.94141,203.73633 1.8164,8.46484 c 2.49198,11.62005 2.30056,19.49353 -0.625,25.79883 -3.26433,7.03552 -10.25267,13.42983 -16.52734,15.12109 C 604.50425,258.26972 592,275.42263 592,296.47852 c 0,12.90994 2.86272,20.72925 10.75195,29.36132 8.4361,9.23045 18.54555,13.86501 32.75586,15.01758 5.77056,0.46803 12.63335,1.92416 15.25,3.23438 5.87595,2.94214 14.20655,11.97361 15.38867,16.68359 0.81385,3.24268 1.26942,2.7693 6,-6.2207 8.73535,-16.60057 23.1315,-28.29855 39.24805,-31.89453 16.85555,-3.7609 17.70299,-6.36051 17.88672,-54.92578 0.1579,-41.73558 -0.21451,-44.26215 -7.68555,-52.24024 -7.93189,-8.47025 -13.599,-9.57887 -55.79101,-10.91016 z m 41.48437,217.35547 c -0.16479,-0.006 -0.18631,0.18153 -0.0371,0.58398 0.47736,1.28784 2.11936,8.88813 3.65039,16.89063 2.40087,12.54886 2.57397,15.71139 1.25391,22.99218 -2.18148,12.03183 -6.9089,21.06232 -15.06641,28.77735 -11.02647,10.42838 -15.73812,12.2235 -44.89258,17.11133 C 536.38692,522.35944 467.9976,534.00986 446,537.99805 c -13.93331,2.52607 -28.79947,4.99375 -33.03516,5.48437 -4.23565,0.49062 -7.42392,1.16984 -7.08593,1.50781 0.83684,0.83685 17.23858,1.76993 134.78711,7.66602 21.26658,1.06671 59.06672,2.86593 84,3.99805 24.93324,1.13212 48.33333,2.23888 52,2.46093 22.54773,1.36551 27.97909,0.96629 35.09179,-2.57812 5.1582,-2.57044 8.88673,-5.06121 10.59571,-9.66602 C 726.22987,534.73371 726,511.93244 726,496.66602 c 0,-52.62513 0.83452,-49.83581 -16.96289,-56.69922 -12.23922,-4.71995 -20.27947,-9.78779 -25.79102,-16.25782 -1.40916,-1.65423 -2.45778,-2.60383 -2.82031,-2.61718 z"
         sodipodi:nodetypes="ccsssssssssssscsssssssssssssssccsss" />
      <path
         id="path1416"
         style="fill:url(#linearGradient3486);fill-opacity:1;stroke-width:0;stroke-linecap:round"
         d="m 577.70898,125.33398 c -2.77353,-3e-5 -25.44173,3.58413 -50.375,7.96485 -50.45753,8.86526 -157.35702,27.35346 -234.66796,40.58789 -54.72018,9.36724 -139.54105,24.04238 -194.000004,33.5625 -18.699946,3.269 -38.799367,6.57899 -44.666016,7.35742 -5.866648,0.77844 -12.788186,1.95113 -15.380859,2.60547 -5.227872,1.31943 -12.382678,7.64129 -15.523438,13.71484 -2.710832,5.24219 -1.084817,17.38447 -0.09375,22.97461 0.744945,4.20188 4.306534,24.00808 11.201172,63.10547 0.61951,3.51305 2.273496,7.44371 4.384766,9.80664 3.054212,3.41827 5.047983,4.15873 15.240234,5.66406 28.671946,4.23473 49.707695,24.51957 54.306645,52.36719 4.2046,25.45995 -11.218383,55.52622 -33.468754,65.2461 -10.841399,4.73595 -10.955794,4.8197 -13.708985,10.125 -2.529047,4.87334 -2.525441,4.9984 1.003907,25.9082 1.950423,11.5554 4.960776,30.4207 6.689453,41.92383 4.108285,27.33776 6.508205,32.24376 18.757812,38.35547 h 0.002 c 2.981199,1.48684 8.062188,2.64568 11.736328,2.67578 3.564546,0.0292 37.764656,-5.02192 75.999996,-11.22461 C 213.38174,551.85197 271.36676,542.54626 304,537.375 c 60.9225,-9.6542 68.86548,-11.07713 55.76758,-9.99805 -6.68628,0.55085 -8.04045,0.2206 -11.66602,-2.83007 -2.96649,-2.49616 -4.10966,-4.61784 -4.13086,-7.66602 -0.0161,-2.31814 -1.15795,-6.69907 -2.53711,-9.73633 -2.64497,-5.82495 -6.01463,-7.6633 -23.62109,-12.88281 -8.15417,-2.41733 -11.18478,-1.32549 -19.86328,7.14844 -7.92796,7.74105 -11.65921,7.3058 -26.4961,-3.08789 -6.53401,-4.57729 -13.00985,-9.84974 -14.39062,-11.7168 -2.4902,-3.3672 -2.47935,-3.46428 1.41016,-12 6.58057,-14.44149 6.5964,-14.2931 -2.8125,-26.45117 -9.8412,-12.71668 -13.30739,-14.35347 -25.19336,-11.89844 -11.25649,2.32498 -12.76542,0.87667 -19.77149,-18.99219 -6.29588,-17.85543 -6.29758,-21.80106 -0.0117,-24.7207 1.82365,-0.84704 5.43841,-2.54049 8.03125,-3.76367 7.27113,-3.43009 8.46858,-6.39988 8.08789,-20.03516 -0.19267,-6.90071 -1.10948,-13.42641 -2.17773,-15.49219 -1.07464,-2.07809 -5.02018,-5.18433 -9.44531,-7.4375 -4.17996,-2.12831 -8.77376,-5.44157 -10.20703,-7.36133 l -2.60547,-3.49023 4.21289,-13.81445 c 7.23237,-23.72325 7.90522,-24.50032 19.39648,-22.35352 11.30648,2.11228 15.63177,-0.0123 23.37305,-11.48437 9.90637,-14.68061 9.92333,-14.78501 4.56836,-25.95899 -2.52207,-5.26264 -4.58399,-10.96715 -4.58399,-12.67578 0,-2.31099 2.98721,-5.47847 11.66602,-12.36719 6.41664,-5.09312 13.07272,-9.99761 14.79102,-10.89843 4.49805,-2.35813 9.11096,-0.71239 16.41601,5.85546 8.60737,7.7388 11.4038,8.24919 22.22852,4.05469 21.18976,-8.21085 21.2567,-8.27476 22.47656,-21.33789 1.18713,-12.7127 2.39782,-13.44161 24.13867,-14.53125 l 17.7168,-0.88867 3.78906,3.78906 c 2.71801,2.71803 4.04853,5.6872 4.71289,10.51758 1.52958,11.12136 3.8718,13.64354 16.06445,17.30078 19.40095,5.81944 22.40207,5.48393 30.8418,-3.46094 4.99602,-5.29495 11.2952,-7.43768 15.42578,-5.24609 4.52981,2.4034 22.58416,16.36984 26.17188,20.24609 l 3.10742,3.35743 -4.10742,9.35742 c -5.76481,13.13454 -5.48819,15.13448 3.84179,27.8457 9.07953,12.36997 10.85,13.19089 25.35352,11.73438 11.90834,-1.19592 12.82138,-0.24474 19.80859,20.64257 5.02232,15.01353 5.31193,16.62535 3.58399,19.9668 -1.1745,2.27126 -4.07293,4.47184 -7.72656,5.86719 -3.21602,1.2282 -7.60079,4.06159 -9.74219,6.29492 -3.70678,3.86592 -3.9146,4.71751 -4.3418,17.76758 -0.41887,12.79586 -0.24027,13.94336 2.66797,17.25781 1.71346,1.95279 6.40612,5.19515 10.42969,7.20703 11.40585,5.7032 11.80679,7.67426 5.25195,25.86133 -7.20382,19.98777 -8.64589,21.29758 -22.28125,20.24609 -9.8761,-0.76156 -10.52844,-0.63439 -14.6875,2.86524 -5.79357,4.87495 -16.26562,19.68453 -16.26562,23.00195 0,1.45364 1.8,6.01599 4,10.13867 2.19997,4.12271 4,8.93737 4,10.69922 0,3.64342 -5.38379,8.94217 -18.83594,18.54102 -11.59116,8.27091 -14.52732,8.24904 -24.16602,-0.18555 -9.31395,-8.15043 -12.26335,-8.90458 -21.97851,-5.61523 -18.80462,6.36682 -20.08902,7.41882 -21.60938,17.70312 -0.5748,3.88823 -1.45457,8.02825 -1.95703,9.19922 -0.75076,1.74957 16.38723,-0.78164 96.15039,-14.19922 145.82231,-24.52985 154.25707,-26.06236 160.02539,-29.06055 8.76902,-4.55785 14.95737,-14.58001 15.00977,-24.31054 0.0161,-2.99249 -2.08525,-15.89187 -4.66992,-28.66602 -2.58469,-12.7741 -5.88753,-29.7893 -7.33789,-37.81054 -3.61853,-20.01202 -7.27281,-23.74007 -24.63282,-25.12696 -18.22954,-1.45637 -35.43413,-11.17697 -46.58203,-26.32031 -8.04516,-10.92859 -11.56194,-20.78948 -12.40625,-34.79297 -1.05575,-17.51046 2.87478,-30.33211 13.95703,-45.53711 5.12273,-7.02844 18.25939,-16.98161 26.0625,-19.74609 11.89192,-4.21307 13.57086,-10.27433 9.38867,-33.89258 -1.68808,-9.5333 -4.63661,-26.33404 -6.55273,-37.33398 -1.91611,-10.99997 -4.26776,-21.49871 -5.22656,-23.33204 -4.58058,-8.75861 -16.16533,-15.99989 -25.59571,-16 z m -445.8789,96.5293 c 3.09942,0.0658 8.81577,2.61057 10.14648,4.76367 0.77937,1.26105 -2.69478,20.6338 -4.11133,22.92578 -0.37863,0.61264 -2.75395,1.11329 -5.27734,1.11329 -5.0427,0 -10.59499,-4.32034 -9.43555,-7.3418 0.38037,-0.99121 1.07741,-4.09441 1.54883,-6.89649 1.52598,-9.07028 3.4091,-13.61747 5.98047,-14.43359 0.3156,-0.10016 0.70566,-0.14026 1.14844,-0.13086 z m 248.20898,33.88086 c -4.09129,0.0326 -7.57829,0.76683 -9.94922,2.32031 -3.36563,2.20528 -3.87608,2.21346 -8.21875,0.14258 -12.0743,-5.75783 -35.76372,0.7376 -48.53711,13.30664 -1.8333,1.80401 -6.00225,4.6015 -9.26367,6.2168 -3.59973,1.78288 -6.73516,4.55571 -7.98047,7.05664 -1.1882,2.38624 -4.74374,5.62169 -8.44726,7.68945 -4.80957,2.6853 -7.99934,6.02838 -12.87305,13.49414 -7.69489,11.78739 -10.14456,20.27419 -8.26562,28.63672 1.16267,5.17463 0.96247,6.27178 -1.8125,9.9375 -8.77638,11.59347 -9.74398,31.77391 -2.22266,46.35742 2.30839,4.47589 4.19727,10.17294 4.19727,12.66016 0,9.90213 8.49811,22.61815 18.50586,27.68945 4.45536,2.25772 6.66298,4.39119 7.87109,7.60938 2.27913,6.07118 5.50587,9.66263 12.64844,14.07812 3.31529,2.04953 8.71766,5.65562 12.0039,8.01172 3.28628,2.35609 10.39921,5.79103 15.80664,7.63281 5.40746,1.84181 12.10556,3.36402 14.88477,3.38282 4.92095,0.0332 14.58893,-3.89913 16.26758,-6.61524 1.22462,-1.98146 5.43972,-1.64741 7.28515,0.57617 0.87956,1.0598 4.45317,2.87461 7.94141,4.03321 5.26785,1.74971 7.56608,1.84595 13.56445,0.5664 9.65518,-2.05958 20.52729,-6.97434 25.9375,-11.72461 2.43048,-2.13394 6.23499,-4.27996 8.45508,-4.76757 5.28174,-1.16007 13.18919,-9.38986 15.08399,-15.70118 0.8256,-2.74997 2.23703,-5 3.13671,-5 0.89966,0 4.97361,-2.74958 9.05469,-6.10937 9.43073,-7.76389 13.29946,-15.38147 13.15039,-25.89453 -0.0859,-6.05828 0.45253,-8.23049 2.49414,-10.07813 3.50891,-3.17549 6.57617,-14.05543 6.57617,-23.32617 0,-8.5163 -2.47557,-16.70638 -6.94726,-22.98633 -2.45454,-3.44708 -3.01591,-6.04689 -3.07031,-14.24414 -0.0571,-8.60765 -0.6721,-11.20135 -4.34766,-18.30469 -5.3635,-10.36544 -11.01423,-16.85656 -18.48437,-21.23437 -3.19943,-1.87499 -5.81836,-4.04646 -5.81836,-4.82422 0,-3.26525 -6.8477,-10.1588 -10.98438,-11.05859 -2.39189,-0.52026 -7.2167,-3.34244 -10.72266,-6.26953 -9.68458,-8.08564 -25.60865,-13.34992 -36.91992,-13.25977 z m 6.52735,9.99805 c 7.30474,0.0321 15.49901,4.05534 22.97851,11.69922 5.95707,6.08793 8.61671,7.89257 11.63672,7.89257 2.73453,0 4.95597,1.236 7.36719,4.10157 1.89852,2.25622 3.45117,4.64582 3.45117,5.31054 0,0.66472 2.96283,2.70993 6.58398,4.54493 3.6212,1.83497 8.10413,5.32927 9.96094,7.76367 7.89356,10.349 11.23482,24.55036 7.44336,31.63476 -1.36132,2.54364 -1.04455,3.48022 2.40625,7.11914 6.57609,6.93462 8.70313,12.5212 8.70313,22.85743 0,9.54212 -2.08347,15.74314 -7.16797,21.33398 -1.8586,2.04369 -2.36765,4.55545 -2.17774,10.75391 0.20375,6.65063 -0.33259,8.93992 -3.02343,12.875 -3.64523,5.33071 -9.15948,9.0528 -15.25196,10.29882 -3.42441,0.70038 -4.20282,1.63631 -5.09765,6.11719 -0.5809,2.90895 -1.7833,6.68768 -2.66993,8.39844 -1.57313,3.03549 -11.16873,9.55664 -14.0625,9.55664 -0.79849,0 -5.10679,2.52269 -9.57421,5.60547 -7.06432,4.87475 -9.20384,5.66094 -16.42969,6.03515 -8.45504,0.43788 -11.18537,-0.44625 -16.64258,-5.38867 l -3,-2.71679 v -89.66993 -89.67187 l 3.39648,-2.67188 c 3.25474,-2.56015 7.07213,-3.79727 11.16993,-3.77929 z m -39.33203,0.21093 c 3.51498,-0.002 6.76216,0.99641 9.60937,3.02735 3.55218,2.53377 4.27748,4.02996 4.84766,10 0.36877,3.86119 0.78587,44.10536 0.92578,89.43164 0.28288,91.64314 0.71459,87.10885 -8.67774,91.0332 -8.13042,3.39711 -15.28978,1.93668 -26.60547,-5.42773 -3.66663,-2.38633 -9.39936,-5.87368 -12.73828,-7.74805 -5.93989,-3.33451 -8.36449,-6.66689 -12.42382,-17.07617 -1.58173,-4.056 -2.67757,-4.94242 -7.02344,-5.6875 -9.59382,-1.64483 -17.81446,-11.9016 -17.81446,-22.22461 0,-5.03066 -0.95885,-7.76984 -4.61914,-13.20898 -5.29556,-7.86921 -6.71235,-13.60814 -5.625,-22.78907 0.87608,-7.39704 3.73428,-13.70042 8.54493,-18.8457 3.21052,-3.4339 3.2684,-3.80699 1.59961,-10.31836 -1.51084,-5.89493 -1.43641,-7.68924 0.57812,-14.08008 3.14676,-9.98263 9.53334,-18.05365 17.18555,-21.7207 4.29493,-2.05822 6.55799,-4.07094 7.12695,-6.33789 1.10021,-4.38356 8.16251,-10.22159 11.79102,-9.74609 1.93797,0.25393 5.03022,-1.71003 9.48046,-6.02344 8.31945,-8.06363 16.64051,-12.25403 23.8379,-12.25782 z m -220.63868,4.75 c 2.74178,-0.0243 5.76005,0.81424 7.19727,2.40235 1.61806,1.78793 2.20703,4.96803 2.20703,11.92383 0,8.29111 -0.37282,9.74834 -2.96289,11.5625 -3.9962,2.79901 -8.44338,2.30661 -12.89844,-1.42774 -1.16242,-0.97437 0.11113,-21.19127 1.43555,-22.78711 0.92406,-1.11342 2.88901,-1.65493 5.02148,-1.67383 z m 202.16992,25.3125 c -1.96151,-0.005 -4.05281,0.72608 -6.03124,2.32813 -5.77891,4.67948 -3.00905,14.99023 4.02734,14.99023 1.23908,0 6.5555,4.1987 11.8125,9.33204 5.25698,5.1333 10.08671,9.33398 10.73437,9.33398 1.7488,0 2.99443,-4.94205 2.01953,-8.01367 -0.46802,-1.4747 -2.45718,-3.52495 -4.42187,-4.55469 -6.88741,-3.60981 -9.57227,-7.20394 -9.57227,-12.81641 0,-6.44904 -3.92261,-10.5875 -8.56836,-10.59961 z m 76.02344,0.125 c -0.12666,-0.002 -0.25253,-4.9e-4 -0.3789,0.006 -2.02196,0.0995 -4.00182,1.27473 -5.76758,3.51954 -2.09614,2.66468 -2.6944,4.83212 -2.19141,7.93164 0.59901,3.69129 0.004,4.85517 -4.42969,8.66601 -2.81712,2.42142 -6.47859,5.34857 -8.13671,6.50391 -4.45984,3.10748 -2.58765,7.07762 2.78125,5.89844 l 4,-0.87696 c 2.08118,-0.50912 3.9035,-3.20597 5.4121,-4.45508 l 5.13282,-4.66796 c 2.82359,-2.56667 6.70711,-5.74497 8.6289,-7.0625 4.35218,-2.9838 4.60128,-8.25178 0.59375,-12.51758 -1.81653,-1.93363 -3.74466,-2.91248 -5.64453,-2.94532 z m -275.74218,21.31446 c 1.293,0.0281 2.5244,0.44952 4.04296,1.29883 3.29809,1.8445 3.62927,2.81584 4.24414,12.49609 0.38375,6.04158 0.0995,11.24935 -0.66796,12.27148 -2.10132,2.79853 -8.96731,3.58118 -11.96094,1.36329 -2.26391,-1.67728 -2.63312,-3.5782 -2.66602,-13.70313 -0.038,-11.70174 -0.0215,-11.76208 3.71875,-13.0918 1.24108,-0.44121 2.28338,-0.65663 3.28907,-0.63476 z m 176.87304,11.75976 c -2.94498,0.0263 -5.72755,0.73609 -7.48242,2.32422 -3.50917,3.17576 -3.02212,6.3692 1.80859,11.8711 4.10712,4.67773 4.4677,4.80857 11.04883,3.98632 6.10655,-0.76293 7.35444,-0.45207 12.17383,3.03907 2.95329,2.13933 7.30047,6.32728 9.66016,9.30664 2.35968,2.97933 5.62172,5.67358 7.24804,5.98828 1.62631,0.3147 4.94687,0.65401 7.37891,0.75391 4.0727,0.16721 4.38858,-0.10729 4,-3.48438 -0.35942,-3.12363 -1.11434,-3.72869 -5.08984,-4.08398 -3.64751,-0.32599 -6.55809,-2.2582 -13.33204,-8.84961 -4.76663,-4.63826 -10.01799,-9.12142 -11.66796,-9.96289 -1.65,-0.8415 -3,-2.67494 -3,-4.07422 0,-4.04926 -6.7159,-6.86828 -12.7461,-6.81446 z m 123.80664,4.11914 c -6.3381,0 -17.72656,8.99186 -17.72656,13.9961 0,0.98547 -2.08007,1.775 -4.33398,2.69531 -2.45946,1.00423 -4.96042,1.74158 -7.13868,2.67578 -11.13071,5.29504 -17.18687,8.60489 -17.35546,23.4043 -0.0968,15.91117 0.083,17.22851 2.36132,17.22851 3.36198,0 3.13295,3.51384 -0.28711,4.40821 -2.27541,0.59506 -2.67908,1.59765 -2.33203,5.77539 0.37652,4.53247 0.87621,5.1471 4.83985,5.95117 5.03533,1.02148 11.29938,6.26839 10.37109,8.6875 -1.18966,3.10017 1.41714,9.18878 4.63477,10.82422 4.12882,2.0986 4.60151,2.08558 9.14453,-0.26367 6.43751,-3.329 7.28773,-9.64587 2.00781,-14.92578 -2.66789,-2.66781 -4.28026,-3.24982 -7.31641,-2.64258 -2.94902,0.5898 -4.57837,0.0585 -6.71679,-2.18555 -4.53842,-4.76255 -6.74006,-8.57819 -7.89063,-13.67969 -0.97435,-4.3201 -0.76196,-4.89528 2.2207,-6.02929 C 396.0227,388.56434 403.67432,388 411.21289,388 c 12.01319,0 14.00596,0.3288 16.12109,2.66602 3.58208,3.95812 10.45208,3.5406 13.90235,-0.84571 C 442.75622,387.88809 444,385.26888 444,384 c 0,-3.71139 -5.21803,-9.33398 -8.66211,-9.33398 -1.72385,0 -4.91692,1.50064 -7.0957,3.33398 -3.76706,3.16976 -4.78488,3.33398 -20.76758,3.33398 h -16.80859 v -6.38476 c 0,-5.9393 0.42017,-6.73516 6.02929,-11.42383 7.53346,-6.29719 17.30111,-9.91776 20.82227,-7.71875 5.28244,3.29895 14.48242,-0.20128 14.48242,-5.50976 0,-0.93703 1.19936,-2.73249 2.66602,-3.98829 5.08797,-4.35645 1.80691,-12.97461 -4.93946,-12.97461 z m -144.98437,18.91211 c -6.28597,0.0769 -10.3173,5.278 -11.1211,14.97071 -0.77743,9.3748 0.0621,12.51292 5.01563,18.74609 3.48846,4.38964 4.03106,6.16617 4.03906,13.2207 0.0128,11.8337 4.7833,18.26035 14.97266,20.17188 5.88148,1.10339 8.40681,3.77684 9.53711,10.09765 0.47077,2.63272 2.19521,6.01829 3.83398,7.52344 3.91992,3.60031 24.71589,17.65124 28.23047,19.07422 5.52997,2.23894 12.39927,1.40512 16.44141,-1.99609 l 3.89648,-3.27735 -0.60937,-27.05664 c -0.33537,-14.88018 -1.11814,-27.59808 -1.73829,-28.26367 -0.66745,-0.71638 -1.96618,-0.51425 -3.18359,0.49609 -1.81462,1.50599 -2.05664,0.75657 -2.05664,-6.36718 0,-6.54588 -0.44216,-8.19923 -2.33398,-8.74024 -1.28334,-0.367 -11.76453,-1.07844 -23.29297,-1.58203 -18.88479,-0.82493 -20.44648,-1.44831 -21.75586,-3.41992 -0.69795,-1.05094 -2.14056,-2.38841 -3.70703,-3.12305 -8.70962,-2.46523 -16.58436,4.98281 -13.63282,12.17383 3.04354,6.99672 10.45103,9.21345 16.53907,4.94922 2.65535,-1.85989 5.71335,-2.02237 22.29687,-1.19336 10.57057,0.52843 19.2207,1.3533 19.2207,1.83399 0,2.92232 -5.50517,3.61428 -19.22265,2.41406 -10.46247,-0.91541 -15.73557,-0.84748 -18.75977,0.24609 -7.60371,2.74955 -13.809,1.93714 -18.12109,-2.375 -2.1436,-2.14358 -3.8744,-5.29358 -3.8457,-7 -0.23405,-7.24013 4.41212,-12.44057 11.43554,-12.94726 2.32053,-0.0864 5.62917,1.00651 7.49805,2.47656 2.69719,2.12161 5.96138,2.73363 16.84766,3.16211 9.42202,0.37086 13.48848,0.0792 13.45898,-0.96485 -0.0851,-3.01624 -16.9921,-12.91695 -26.60938,-15.58203 -5.29148,-1.46636 -12.00369,-3.88145 -14.91601,-5.36718 -3.09166,-1.57725 -5.8977,-2.33087 -8.35742,-2.30079 z M 136.16992,365.7168 c 4.02193,-0.0131 5.40657,3.4415 6.81446,13.47461 1.32283,9.42728 1.23765,10.35653 -1.10938,12.13281 -2.85937,2.16402 -8.27645,2.55746 -11.04688,0.80273 -1.77392,-1.12359 -5.76813,-21.11394 -4.61328,-23.08984 0.30964,-0.52979 2.9643,-1.68342 5.89844,-2.5625 1.59821,-0.47884 2.9305,-0.75416 4.05664,-0.75781 z m 159.3418,13.37109 c 0.4619,0.01 0.96296,0.0786 1.49805,0.21289 4.76901,1.19696 5.17563,1.71605 3.46679,4.42969 -1.92439,3.05591 -5.01803,3.49672 -7.08203,1.00976 -2.42711,-2.92447 -1.11609,-5.71913 2.11719,-5.65234 z M 340,397.33398 c 2.3364,0 1.44857,2.15154 -2.66602,6.45704 -2.19997,2.30207 -4,4.82971 -4,5.61914 0,0.81933 -1.12368,1.07948 -2.61718,0.60546 -3.30258,-1.04817 -7.42282,1.12086 -10.20899,5.37305 -1.82343,2.78292 -1.89902,3.91948 -0.48633,7.33008 0.91978,2.22053 3.17292,5.21836 5.00586,6.66016 7.41664,5.8339 15.91757,0.37822 14.60938,-9.375 -0.61814,-4.6086 -0.27393,-5.73187 2.26367,-7.39453 1.64577,-1.07836 3.77466,-3.42525 4.73242,-5.21485 0.95776,-1.7896 2.5578,-3.56667 3.55469,-3.94922 3.11919,-1.19695 2.08475,5.35876 -1.52148,9.64453 -2.0221,2.40313 -3.33204,5.62431 -3.33204,8.18946 0,4.70737 -2.01695,9.21945 -5.21875,11.67773 -2.63936,2.02645 -11.89024,2.12177 -15.44921,0.1582 -6.50492,-3.58885 -10,-8.22267 -10,-13.25585 0,-2.73616 0.37258,-5.94572 0.82812,-7.13282 1.11676,-2.9102 7.48903,-6.06054 12.25977,-6.06054 4.32515,0 10.91211,-4.48481 10.91211,-7.42969 0,-1.04678 0.60065,-1.90235 1.33398,-1.90235 z m -193.99805,16 c 4.32889,0 4.40111,0.1046 7.18555,10.42383 1.547,5.73327 2.8125,11.06836 2.8125,11.85547 0,0.78711 -2.41121,2.39654 -5.35938,3.57617 -2.94815,1.17962 -5.63578,2.14453 -5.9707,2.14453 -1.57026,0 -4.68086,-6.80801 -6.68554,-14.63086 -2.19356,-8.55981 -2.18721,-8.64848 0.71679,-11 1.61017,-1.30381 4.89573,-2.36914 7.30078,-2.36914 z m 184.6836,4 c 2.10003,0 3.02444,5.60775 1.12304,6.8125 -3.67397,2.32796 -6.47461,1.07621 -6.47461,-2.89257 0,-2.09744 2.48795,-3.91993 5.35157,-3.91993 z m -170.63477,41.52149 c 0.27664,0.002 0.54934,0.0161 0.81445,0.0469 3.25471,0.378 4.23042,1.7098 8.04102,10.96485 2.38532,5.79335 4.01668,11.05181 3.625,11.68554 -0.39169,0.63375 -2.99423,2.31543 -5.7832,3.73829 -4.03285,2.05737 -5.47765,2.25969 -7.05469,0.98242 -2.09798,-1.6992 -9.02734,-18.27173 -9.02734,-21.58985 0,-2.71573 5.23518,-5.85254 9.38476,-5.82812 z m 21.76563,44.48047 c 0.40052,-0.0135 0.69729,0.0545 0.85156,0.22265 0.55919,0.60942 3.50383,5.69043 6.54492,11.29102 l 5.5293,10.18359 -4.14063,3.48242 c -4.49641,3.7835 -8.19435,4.44041 -10.24804,1.81836 -3.42997,-4.37916 -10.64202,-19.19491 -10.07813,-20.70312 0.78095,-2.08878 8.73736,-6.20052 11.54102,-6.29492 z"
         sodipodi:nodetypes="ssssssssssssssssccsssssssssssssscssssscccsssssssssccssssssccssssssssssssssssssssssssssssssssssssssssssssssssssssssssssssssssssssssssssssssssssssssssssssssssssssscccccscsssssssssssssssssscssssssscssssssscccssssccccsscsssssssssssssssssssssssssssccssssssssssssssssssscssssssssscsssscccssssssccssssssccsscsssssssssscssscssssssssssssssssssssssssssssssssccssssscsscccsss" />
    </g>
  </g>
</svg>
